<?xml version="1.0" encoding="UTF-8"?>
<svg xmlns="http://www.w3.org/2000/svg" xmlns:svg="http://www.w3.org/2000/svg" version="1.1" viewBox="0 0 1400 1050">
	<title>The titlepage for the Standard Ebooks edition of Lost Face, by Jack London</title>
	<g style="font-size:93.56725311px;font-family:'League Spartan';letter-spacing:5px;text-anchor:middle;fill:#000000">
		<path d="m 484.08918,252.80702 -17.59065,0 0,77.19298 44.16375,0 0,-15.4386 -26.5731,0 0,-61.75438 z" style="font-size:93.56725311px;font-family:'League Spartan';letter-spacing:5px;text-anchor:middle;fill:#000000"/>
		<path d="m 520.85087,306.04678 c 0,14.78363 11.60234,25.35673 28.91228,25.35673 16.56141,0 28.63158,-10.5731 28.63158,-25.35673 0,-14.97076 -12.72514,-25.45029 -28.63158,-25.45029 -16.18713,0 -28.91228,10.47953 -28.91228,25.45029 z m 17.59065,0 c 0,-6.64327 4.95906,-11.32163 11.22807,-11.32163 6.17544,0 11.1345,4.67836 11.1345,11.32163 0,6.54971 -4.67836,11.22807 -11.1345,11.22807 -6.73685,0 -11.22807,-4.67836 -11.22807,-11.22807 z" style="font-size:93.56725311px;font-family:'League Spartan';letter-spacing:5px;text-anchor:middle;fill:#000000"/>
		<path d="m 611.58187,280.59649 c -12.63158,0 -20.95907,5.61404 -20.95907,15.4386 0,7.20468 4.8655,10.5731 9.731,13.09941 5.4269,2.80702 10.66666,3.08772 10.66666,6.54971 0,3.18129 -2.80701,3.46199 -5.1462,3.46199 -5.33333,0 -11.88304,-5.52047 -11.88304,-5.52047 l -6.73684,11.32164 c 0,0 6.92398,6.45614 18.52632,6.45614 9.82456,0 22.73684,-2.24562 22.73684,-16.37427 0,-9.82456 -8.23392,-13.38012 -14.59649,-15.34503 -4.11696,-1.30994 -7.48538,-2.05848 -7.48538,-4.5848 0,-2.24561 1.49707,-2.90058 5.1462,-2.90058 5.05263,0 10.66666,2.99415 10.66666,2.99415 l 5.4269,-10.8538 c 0,0 -6.83041,-3.74269 -16.09356,-3.74269 z" style="font-size:93.56725311px;font-family:'League Spartan';letter-spacing:5px;text-anchor:middle;fill:#000000"/>
		<path d="m 643.66227,282 -6.92397,0 0,12.63158 6.92397,0 0,18.43275 c 0,8.51462 3.18129,18.33918 16.37427,18.33918 6.83041,0 12.16374,-2.99415 12.16374,-2.99415 l -4.11696,-13.38012 c 0,0 -1.96491,1.49708 -4.11695,1.49708 -2.61989,0 -3.74269,-2.15205 -3.74269,-6.64328 l 0,-15.25146 10.10526,0 0,-12.63158 -10.10526,0 0,-17.87135 -16.56141,0 0,17.87135 z" style="font-size:93.56725311px;font-family:'League Spartan';letter-spacing:5px;text-anchor:middle;fill:#000000"/>
		<path d="m 757.98685,252.80702 -44.63158,0 0,77.19298 17.59064,0 0,-30.97076 24.98246,0 0,-15.4386 -24.98246,0 0,-15.34503 27.04094,0 0,-15.43859 z" style="font-size:93.56725311px;font-family:'League Spartan';letter-spacing:5px;text-anchor:middle;fill:#000000"/>
		<path d="m 764.96639,306.04678 c 0,14.03509 9.82456,25.35673 23.85965,25.35673 6.5497,0 12.16374,-2.90059 15.71929,-6.83041 l 0.18714,0 0,5.4269 16.37427,0 0,-48 -16.56141,0 0,4.58479 c -3.92982,-3.83625 -9.26315,-5.9883 -15.71929,-5.9883 -14.03509,0 -23.85965,11.41521 -23.85965,25.45029 z m 17.59064,0 c 0,-6.64327 4.95906,-11.32163 11.22807,-11.32163 6.17544,0 11.1345,4.67836 11.1345,11.32163 0,6.54971 -4.67836,11.22807 -11.1345,11.22807 -6.73684,0 -11.22807,-4.67836 -11.22807,-11.22807 z" style="font-size:93.56725311px;font-family:'League Spartan';letter-spacing:5px;text-anchor:middle;fill:#000000"/>
		<path d="m 862.93421,294.16374 c 4.95906,0 8.04678,2.24562 8.04678,2.24562 l 5.61404,-11.32164 c 0,0 -5.4269,-4.49123 -16.09357,-4.49123 -13.94152,0 -26.5731,11.41521 -26.5731,25.54386 0,14.03509 12.72515,25.26316 26.5731,25.26316 10.66667,0 16.09357,-4.30409 16.09357,-4.30409 l -5.61404,-11.50878 c 0,0 -3.08772,2.24562 -8.04678,2.24562 -6.26901,0 -11.41521,-5.23977 -11.41521,-11.88304 0,-6.54971 5.1462,-11.78948 11.41521,-11.78948 z" style="font-size:93.56725311px;font-family:'League Spartan';letter-spacing:5px;text-anchor:middle;fill:#000000"/>
		<path d="m 936.82166,308.2924 c 0.0936,-0.56141 0.0936,-1.59065 0.0936,-2.24562 0,-16.8421 -11.1345,-25.45029 -25.73099,-25.45029 -14.50292,0 -26.38597,11.41521 -26.38597,25.45029 0,13.94152 11.88305,25.35673 26.38597,25.35673 10.66667,0 19.46199,-3.46199 24.88889,-12.53801 l -11.97661,-5.98831 c -4.02339,4.3041 -6.36257,5.33334 -11.69591,5.33334 -4.21052,0 -10.38596,-2.52632 -10.38596,-9.91813 l 34.80702,0 z m -34.33918,-9.16959 c 0.2807,-4.39766 3.46198,-7.76609 9.16959,-7.76609 4.86549,0 8.32748,2.71345 9.07602,7.76609 l -18.24561,0 z" style="font-size:93.56725311px;font-family:'League Spartan';letter-spacing:5px;text-anchor:middle;fill:#000000"/>
	</g>
	<g style="font-size:70.17543793px;font-family:'League Spartan';letter-spacing:5px;text-anchor:middle;fill:#000000">
		<path d="m 478.18366,512.10526 -13.19298,0 0,38.17544 c 0,5.82456 -2.87719,8.14035 -6.66666,8.14035 -3.36843,0 -7.50878,-3.92982 -7.50878,-3.92982 l -4.21052,11.01754 c 0,0 5.26315,5.54386 13.54386,5.54386 11.57894,0 18.03508,-6.03509 18.03508,-17.40351 l 0,-41.54386 z" style="font-size:70.17543793px;font-family:'League Spartan';letter-spacing:5px;text-anchor:middle;fill:#000000"/>
		<path d="m 488.28893,552.03509 c 0,10.52631 7.36842,19.01754 17.89473,19.01754 4.91229,0 9.12281,-2.17544 11.78948,-5.12281 l 0.14035,0 0,4.07018 12.2807,0 0,-36 -12.42105,0 0,3.4386 c -2.94737,-2.8772 -6.94737,-4.49123 -11.78948,-4.49123 -10.52631,0 -17.89473,8.5614 -17.89473,19.08772 z m 13.19298,0 c 0,-4.98246 3.7193,-8.49123 8.42105,-8.49123 4.63158,0 8.35088,3.50877 8.35088,8.49123 0,4.91228 -3.50877,8.42105 -8.35088,8.42105 -5.05263,0 -8.42105,-3.50877 -8.42105,-8.42105 z" style="font-size:70.17543793px;font-family:'League Spartan';letter-spacing:5px;text-anchor:middle;fill:#000000"/>
		<path d="m 563.0148,543.12281 c 3.7193,0 6.03509,1.68421 6.03509,1.68421 l 4.21053,-8.49123 c 0,0 -4.07018,-3.36842 -12.07018,-3.36842 -10.45614,0 -19.92982,8.5614 -19.92982,19.15789 0,10.52632 9.54386,18.94737 19.92982,18.94737 8,0 12.07018,-3.22807 12.07018,-3.22807 l -4.21053,-8.63158 c 0,0 -2.31579,1.68421 -6.03509,1.68421 -4.70175,0 -8.5614,-3.92982 -8.5614,-8.91228 0,-4.91228 3.85965,-8.8421 8.5614,-8.8421 z" style="font-size:70.17543793px;font-family:'League Spartan';letter-spacing:5px;text-anchor:middle;fill:#000000"/>
		<path d="m 624.38213,534 -16.14035,0 -12.5614,12.5614 0,-36.91228 -12.42105,0 0,60.35088 12.42105,0 0,-14.38596 14.38597,14.38596 16,0 L 607.25933,551.19298 624.38213,534 Z" style="font-size:70.17543793px;font-family:'League Spartan';letter-spacing:5px;text-anchor:middle;fill:#000000"/>
		<path d="m 671.00822,512.10526 -13.19298,0 0,57.89474 33.1228,0 0,-11.57895 -19.92982,0 0,-46.31579 z" style="font-size:70.17543793px;font-family:'League Spartan';letter-spacing:5px;text-anchor:middle;fill:#000000"/>
		<path d="m 699.82949,552.03509 c 0,11.08772 8.70176,19.01754 21.68421,19.01754 12.42106,0 21.47369,-7.92982 21.47369,-19.01754 0,-11.22807 -9.54386,-19.08772 -21.47369,-19.08772 -12.14035,0 -21.68421,7.85965 -21.68421,19.08772 z m 13.19299,0 c 0,-4.98246 3.71929,-8.49123 8.42105,-8.49123 4.63158,0 8.35088,3.50877 8.35088,8.49123 0,4.91228 -3.50878,8.42105 -8.35088,8.42105 -5.05263,0 -8.42105,-3.50877 -8.42105,-8.42105 z" style="font-size:70.17543793px;font-family:'League Spartan';letter-spacing:5px;text-anchor:middle;fill:#000000"/>
		<path d="m 753.61568,570 12.42105,0 0,-20.35088 c 0,-3.57894 3.64913,-7.01754 7.36843,-7.01754 4,0 6.45614,3.4386 6.45614,7.01754 l 0,20.35088 12.42105,0 0,-23.7193 c 0,-10.03509 -9.19298,-13.33333 -15.78948,-13.33333 -3.92982,0 -7.50877,2.03509 -10.31578,4.8421 l -0.14036,0 0,-3.78947 -12.42105,0 0,36 z" style="font-size:70.17543793px;font-family:'League Spartan';letter-spacing:5px;text-anchor:middle;fill:#000000"/>
		<path d="m 802.34594,552.03509 c 0,10.52631 7.36842,19.01754 17.89474,19.01754 4.91228,0 9.12281,-2.17544 11.78947,-5.12281 l 0.14035,0 0,4.07018 12.28071,0 0,-60.35088 -12.42106,0 0,27.78948 c -2.94737,-2.8772 -6.94737,-4.49123 -11.78947,-4.49123 -10.52632,0 -17.89474,8.5614 -17.89474,19.08772 z m 13.19298,0 c 0,-4.98246 3.7193,-8.49123 8.42106,-8.49123 4.63158,0 8.35087,3.50877 8.35087,8.49123 0,4.91228 -3.50877,8.42105 -8.35087,8.42105 -5.05263,0 -8.42106,-3.50877 -8.42106,-8.42105 z" style="font-size:70.17543793px;font-family:'League Spartan';letter-spacing:5px;text-anchor:middle;fill:#000000"/>
		<path d="m 855.31744,552.03509 c 0,11.08772 8.70175,19.01754 21.68421,19.01754 12.42105,0 21.47368,-7.92982 21.47368,-19.01754 0,-11.22807 -9.54386,-19.08772 -21.47368,-19.08772 -12.14035,0 -21.68421,7.85965 -21.68421,19.08772 z m 13.19298,0 c 0,-4.98246 3.7193,-8.49123 8.42105,-8.49123 4.63158,0 8.35088,3.50877 8.35088,8.49123 0,4.91228 -3.50877,8.42105 -8.35088,8.42105 -5.05263,0 -8.42105,-3.50877 -8.42105,-8.42105 z" style="font-size:70.17543793px;font-family:'League Spartan';letter-spacing:5px;text-anchor:middle;fill:#000000"/>
		<path d="m 909.10363,570 12.42105,0 0,-20.35088 c 0,-3.57894 3.64912,-7.01754 7.36842,-7.01754 4,0 6.45614,3.4386 6.45614,7.01754 l 0,20.35088 12.42105,0 0,-23.7193 c 0,-10.03509 -9.19298,-13.33333 -15.78947,-13.33333 -3.92982,0 -7.50877,2.03509 -10.31579,4.8421 l -0.14035,0 0,-3.78947 -12.42105,0 0,36 z" style="font-size:70.17543793px;font-family:'League Spartan';letter-spacing:5px;text-anchor:middle;fill:#000000"/>
	</g>
</svg>
